<mxfile host="Electron" agent="Mozilla/5.0 (Windows NT 10.0; Win64; x64) AppleWebKit/537.36 (KHTML, like Gecko) draw.io/24.7.8 Chrome/128.0.6613.36 Electron/32.0.1 Safari/537.36" version="24.7.8">
  <diagram id="2RAkf9iS2bYrb-5zrusB" name="Page-1">
    <mxGraphModel dx="1134" dy="681" grid="1" gridSize="10" guides="1" tooltips="1" connect="1" arrows="1" fold="1" page="1" pageScale="1" pageWidth="850" pageHeight="1100" math="0" shadow="0">
      <root>
        <mxCell id="0" />
        <mxCell id="1" parent="0" />
        <mxCell id="EpLoNu7SxfJ4iQwhgqlz-1" value="&lt;h1&gt;Assurance Case&lt;/h1&gt;" style="text;html=1;strokeColor=none;fillColor=none;spacing=5;spacingTop=-20;whiteSpace=wrap;overflow=hidden;rounded=0;" parent="1" vertex="1">
          <mxGeometry x="20" y="20" width="190" height="80" as="geometry" />
        </mxCell>
        <mxCell id="EpLoNu7SxfJ4iQwhgqlz-4" style="edgeStyle=orthogonalEdgeStyle;rounded=0;orthogonalLoop=1;jettySize=auto;html=1;exitX=1;exitY=0.5;exitDx=0;exitDy=0;entryX=0;entryY=0.5;entryDx=0;entryDy=0;endArrow=block;endFill=1;" parent="1" source="EpLoNu7SxfJ4iQwhgqlz-2" target="EpLoNu7SxfJ4iQwhgqlz-3" edge="1">
          <mxGeometry relative="1" as="geometry" />
        </mxCell>
        <mxCell id="EpLoNu7SxfJ4iQwhgqlz-6" value="" style="edgeStyle=orthogonalEdgeStyle;rounded=0;orthogonalLoop=1;jettySize=auto;html=1;endArrow=block;endFill=1;curved=1;" parent="1" source="EpLoNu7SxfJ4iQwhgqlz-2" target="EpLoNu7SxfJ4iQwhgqlz-5" edge="1">
          <mxGeometry relative="1" as="geometry" />
        </mxCell>
        <mxCell id="EpLoNu7SxfJ4iQwhgqlz-37" style="edgeStyle=orthogonalEdgeStyle;curved=1;rounded=0;orthogonalLoop=1;jettySize=auto;html=1;exitX=0.5;exitY=1;exitDx=0;exitDy=0;endArrow=block;endFill=1;" parent="1" source="EpLoNu7SxfJ4iQwhgqlz-2" target="EpLoNu7SxfJ4iQwhgqlz-36" edge="1">
          <mxGeometry relative="1" as="geometry" />
        </mxCell>
        <mxCell id="EpLoNu7SxfJ4iQwhgqlz-2" value="&lt;b&gt;Top-Claim C1:&lt;br&gt;&lt;/b&gt;The network logging capabilities provide critical insights by detecting the meaningless activities vs actual threats" style="rounded=0;whiteSpace=wrap;html=1;" parent="1" vertex="1">
          <mxGeometry x="280" y="10" width="190" height="90" as="geometry" />
        </mxCell>
        <mxCell id="EpLoNu7SxfJ4iQwhgqlz-3" value="Context: CT1&lt;br&gt;Tweety is an animal" style="rounded=1;whiteSpace=wrap;html=1;arcSize=30;" parent="1" vertex="1">
          <mxGeometry x="850" y="50" width="120" height="60" as="geometry" />
        </mxCell>
        <mxCell id="EpLoNu7SxfJ4iQwhgqlz-9" style="edgeStyle=orthogonalEdgeStyle;curved=1;rounded=0;orthogonalLoop=1;jettySize=auto;html=1;endArrow=block;endFill=1;exitX=0.5;exitY=1;exitDx=0;exitDy=0;exitPerimeter=0;entryX=0.5;entryY=0;entryDx=0;entryDy=0;" parent="1" source="DYZq1Ub0ufAEVa0tTdsM-1" target="DYZq1Ub0ufAEVa0tTdsM-19" edge="1">
          <mxGeometry relative="1" as="geometry">
            <mxPoint x="111" y="230" as="sourcePoint" />
            <mxPoint x="518" y="430" as="targetPoint" />
          </mxGeometry>
        </mxCell>
        <mxCell id="EpLoNu7SxfJ4iQwhgqlz-5" value="Rebuttal R1: Logging too much will impact performance" style="shape=note;whiteSpace=wrap;html=1;backgroundOutline=1;darkOpacity=0.05;size=17;fillColor=#FFF2CC;" parent="1" vertex="1">
          <mxGeometry x="12.5" y="170" width="197.5" height="60" as="geometry" />
        </mxCell>
        <mxCell id="EpLoNu7SxfJ4iQwhgqlz-12" style="edgeStyle=orthogonalEdgeStyle;curved=1;rounded=0;orthogonalLoop=1;jettySize=auto;html=1;exitX=0.5;exitY=1;exitDx=0;exitDy=0;entryX=0.5;entryY=0;entryDx=0;entryDy=0;entryPerimeter=0;endArrow=block;endFill=1;" parent="1" source="EpLoNu7SxfJ4iQwhgqlz-8" target="EpLoNu7SxfJ4iQwhgqlz-10" edge="1">
          <mxGeometry relative="1" as="geometry" />
        </mxCell>
        <mxCell id="EpLoNu7SxfJ4iQwhgqlz-13" style="edgeStyle=orthogonalEdgeStyle;curved=1;rounded=0;orthogonalLoop=1;jettySize=auto;html=1;exitX=0.5;exitY=1;exitDx=0;exitDy=0;entryX=0.5;entryY=0;entryDx=0;entryDy=0;entryPerimeter=0;endArrow=block;endFill=1;" parent="1" source="EpLoNu7SxfJ4iQwhgqlz-8" target="EpLoNu7SxfJ4iQwhgqlz-11" edge="1">
          <mxGeometry relative="1" as="geometry" />
        </mxCell>
        <mxCell id="EpLoNu7SxfJ4iQwhgqlz-8" value="&lt;b&gt;Sub-Claim C2:&lt;br&gt;&lt;/b&gt;Tweety is a winged bird" style="rounded=0;whiteSpace=wrap;html=1;" parent="1" vertex="1">
          <mxGeometry x="42.5" y="450" width="135" height="60" as="geometry" />
        </mxCell>
        <mxCell id="EpLoNu7SxfJ4iQwhgqlz-16" style="edgeStyle=orthogonalEdgeStyle;curved=1;rounded=0;orthogonalLoop=1;jettySize=auto;html=1;exitX=0.5;exitY=1;exitDx=0;exitDy=0;exitPerimeter=0;entryX=0.5;entryY=0;entryDx=0;entryDy=0;endArrow=block;endFill=1;" parent="1" source="EpLoNu7SxfJ4iQwhgqlz-10" target="EpLoNu7SxfJ4iQwhgqlz-14" edge="1">
          <mxGeometry relative="1" as="geometry" />
        </mxCell>
        <mxCell id="EpLoNu7SxfJ4iQwhgqlz-10" value="Rebuttal R2: Unless Tweety is handicapped" style="shape=note;whiteSpace=wrap;html=1;backgroundOutline=1;darkOpacity=0.05;size=17;fillColor=#FFF2CC;" parent="1" vertex="1">
          <mxGeometry x="27.5" y="570" width="140" height="60" as="geometry" />
        </mxCell>
        <mxCell id="EpLoNu7SxfJ4iQwhgqlz-17" style="edgeStyle=orthogonalEdgeStyle;curved=1;rounded=0;orthogonalLoop=1;jettySize=auto;html=1;endArrow=block;endFill=1;" parent="1" source="EpLoNu7SxfJ4iQwhgqlz-11" target="EpLoNu7SxfJ4iQwhgqlz-15" edge="1">
          <mxGeometry relative="1" as="geometry" />
        </mxCell>
        <mxCell id="EpLoNu7SxfJ4iQwhgqlz-11" value="Rebuttal R3: Unless Tweety is a Penguin" style="shape=note;whiteSpace=wrap;html=1;backgroundOutline=1;darkOpacity=0.05;size=17;fillColor=#FFF2CC;" parent="1" vertex="1">
          <mxGeometry x="197.5" y="570" width="140" height="60" as="geometry" />
        </mxCell>
        <mxCell id="EpLoNu7SxfJ4iQwhgqlz-20" style="edgeStyle=orthogonalEdgeStyle;curved=1;rounded=0;orthogonalLoop=1;jettySize=auto;html=1;exitX=0.5;exitY=1;exitDx=0;exitDy=0;entryX=0.663;entryY=0.025;entryDx=0;entryDy=0;entryPerimeter=0;endArrow=block;endFill=1;" parent="1" source="EpLoNu7SxfJ4iQwhgqlz-14" target="EpLoNu7SxfJ4iQwhgqlz-18" edge="1">
          <mxGeometry relative="1" as="geometry" />
        </mxCell>
        <mxCell id="EpLoNu7SxfJ4iQwhgqlz-21" style="edgeStyle=orthogonalEdgeStyle;curved=1;rounded=0;orthogonalLoop=1;jettySize=auto;html=1;entryX=0.5;entryY=0;entryDx=0;entryDy=0;endArrow=block;endFill=1;" parent="1" source="EpLoNu7SxfJ4iQwhgqlz-14" target="EpLoNu7SxfJ4iQwhgqlz-19" edge="1">
          <mxGeometry relative="1" as="geometry" />
        </mxCell>
        <mxCell id="EpLoNu7SxfJ4iQwhgqlz-14" value="&lt;b&gt;Sub-Claim C3:&lt;br&gt;&lt;/b&gt;Tweety is physically able" style="rounded=0;whiteSpace=wrap;html=1;" parent="1" vertex="1">
          <mxGeometry x="42.5" y="670" width="140" height="60" as="geometry" />
        </mxCell>
        <mxCell id="EpLoNu7SxfJ4iQwhgqlz-27" style="edgeStyle=orthogonalEdgeStyle;curved=1;rounded=0;orthogonalLoop=1;jettySize=auto;html=1;entryX=0.5;entryY=0;entryDx=0;entryDy=0;endArrow=block;endFill=1;" parent="1" source="EpLoNu7SxfJ4iQwhgqlz-15" target="EpLoNu7SxfJ4iQwhgqlz-26" edge="1">
          <mxGeometry relative="1" as="geometry" />
        </mxCell>
        <mxCell id="EpLoNu7SxfJ4iQwhgqlz-15" value="&lt;b&gt;Sub-Claim C4:&lt;br&gt;&lt;/b&gt;Tweety is a member of a flying bird species" style="rounded=0;whiteSpace=wrap;html=1;" parent="1" vertex="1">
          <mxGeometry x="257.5" y="680" width="140" height="60" as="geometry" />
        </mxCell>
        <mxCell id="EpLoNu7SxfJ4iQwhgqlz-23" style="edgeStyle=orthogonalEdgeStyle;curved=1;rounded=0;orthogonalLoop=1;jettySize=auto;html=1;entryX=0.5;entryY=0;entryDx=0;entryDy=0;endArrow=block;endFill=1;" parent="1" source="EpLoNu7SxfJ4iQwhgqlz-18" target="EpLoNu7SxfJ4iQwhgqlz-22" edge="1">
          <mxGeometry relative="1" as="geometry" />
        </mxCell>
        <mxCell id="EpLoNu7SxfJ4iQwhgqlz-18" value="&lt;b&gt;Evidence E1&lt;/b&gt;:&lt;br&gt;Physical test report" style="ellipse;whiteSpace=wrap;html=1;aspect=fixed;fillColor=#ffffff;rounded=0;" parent="1" vertex="1">
          <mxGeometry x="17.5" y="800" width="100" height="100" as="geometry" />
        </mxCell>
        <mxCell id="EpLoNu7SxfJ4iQwhgqlz-25" style="edgeStyle=orthogonalEdgeStyle;curved=1;rounded=0;orthogonalLoop=1;jettySize=auto;html=1;entryX=0.5;entryY=0;entryDx=0;entryDy=0;endArrow=block;endFill=1;" parent="1" source="EpLoNu7SxfJ4iQwhgqlz-19" target="EpLoNu7SxfJ4iQwhgqlz-24" edge="1">
          <mxGeometry relative="1" as="geometry" />
        </mxCell>
        <mxCell id="EpLoNu7SxfJ4iQwhgqlz-19" value="&lt;b&gt;Evidence E2:&lt;/b&gt;&lt;br&gt;Flying Tweety Sightings" style="ellipse;whiteSpace=wrap;html=1;aspect=fixed;fillColor=#ffffff;rounded=0;" parent="1" vertex="1">
          <mxGeometry x="137.5" y="800" width="100" height="100" as="geometry" />
        </mxCell>
        <mxCell id="EpLoNu7SxfJ4iQwhgqlz-22" value="" style="ellipse;whiteSpace=wrap;html=1;aspect=fixed;fillColor=#CCCCCC;" parent="1" vertex="1">
          <mxGeometry x="52.5" y="930" width="30" height="30" as="geometry" />
        </mxCell>
        <mxCell id="EpLoNu7SxfJ4iQwhgqlz-24" value="" style="ellipse;whiteSpace=wrap;html=1;aspect=fixed;fillColor=#CCCCCC;" parent="1" vertex="1">
          <mxGeometry x="172.5" y="930" width="30" height="30" as="geometry" />
        </mxCell>
        <mxCell id="EpLoNu7SxfJ4iQwhgqlz-29" style="edgeStyle=orthogonalEdgeStyle;curved=1;rounded=0;orthogonalLoop=1;jettySize=auto;html=1;entryX=0.5;entryY=0;entryDx=0;entryDy=0;entryPerimeter=0;endArrow=block;endFill=1;" parent="1" source="EpLoNu7SxfJ4iQwhgqlz-26" target="EpLoNu7SxfJ4iQwhgqlz-28" edge="1">
          <mxGeometry relative="1" as="geometry" />
        </mxCell>
        <mxCell id="EpLoNu7SxfJ4iQwhgqlz-26" value="&lt;b&gt;Evidence E3:&lt;/b&gt;&lt;br&gt;Tweety&#39;s DNA test results" style="ellipse;whiteSpace=wrap;html=1;aspect=fixed;fillColor=#ffffff;rounded=0;" parent="1" vertex="1">
          <mxGeometry x="277.5" y="780" width="100" height="100" as="geometry" />
        </mxCell>
        <mxCell id="EpLoNu7SxfJ4iQwhgqlz-31" style="edgeStyle=orthogonalEdgeStyle;curved=1;rounded=0;orthogonalLoop=1;jettySize=auto;html=1;endArrow=block;endFill=1;" parent="1" source="EpLoNu7SxfJ4iQwhgqlz-28" target="EpLoNu7SxfJ4iQwhgqlz-30" edge="1">
          <mxGeometry relative="1" as="geometry" />
        </mxCell>
        <mxCell id="EpLoNu7SxfJ4iQwhgqlz-28" value="Undermine UM1: Unless the DNA test was contaminated" style="shape=note;whiteSpace=wrap;html=1;backgroundOutline=1;darkOpacity=0.05;size=17;fillColor=#A9C4EB;" parent="1" vertex="1">
          <mxGeometry x="297.5" y="930" width="140" height="60" as="geometry" />
        </mxCell>
        <mxCell id="EpLoNu7SxfJ4iQwhgqlz-35" style="edgeStyle=orthogonalEdgeStyle;curved=1;rounded=0;orthogonalLoop=1;jettySize=auto;html=1;endArrow=block;endFill=1;" parent="1" source="EpLoNu7SxfJ4iQwhgqlz-30" target="EpLoNu7SxfJ4iQwhgqlz-33" edge="1">
          <mxGeometry relative="1" as="geometry" />
        </mxCell>
        <mxCell id="EpLoNu7SxfJ4iQwhgqlz-30" value="&lt;b&gt;Sub-Claim C5:&lt;br&gt;&lt;/b&gt;The DNA sample has no cross-contamination" style="rounded=0;whiteSpace=wrap;html=1;" parent="1" vertex="1">
          <mxGeometry x="347.5" y="1030" width="140" height="60" as="geometry" />
        </mxCell>
        <mxCell id="EpLoNu7SxfJ4iQwhgqlz-32" style="edgeStyle=orthogonalEdgeStyle;curved=1;rounded=0;orthogonalLoop=1;jettySize=auto;html=1;entryX=0.5;entryY=0;entryDx=0;entryDy=0;endArrow=block;endFill=1;" parent="1" source="EpLoNu7SxfJ4iQwhgqlz-33" target="EpLoNu7SxfJ4iQwhgqlz-34" edge="1">
          <mxGeometry relative="1" as="geometry" />
        </mxCell>
        <mxCell id="EpLoNu7SxfJ4iQwhgqlz-33" value="&lt;b&gt;Evidence E4:&lt;/b&gt;&lt;br&gt;Lab Procedures" style="ellipse;whiteSpace=wrap;html=1;aspect=fixed;fillColor=#ffffff;rounded=0;" parent="1" vertex="1">
          <mxGeometry x="417.5" y="1130" width="100" height="100" as="geometry" />
        </mxCell>
        <mxCell id="EpLoNu7SxfJ4iQwhgqlz-34" value="" style="ellipse;whiteSpace=wrap;html=1;aspect=fixed;fillColor=#CCCCCC;" parent="1" vertex="1">
          <mxGeometry x="452.5" y="1260" width="30" height="30" as="geometry" />
        </mxCell>
        <mxCell id="EpLoNu7SxfJ4iQwhgqlz-39" style="edgeStyle=orthogonalEdgeStyle;curved=1;rounded=0;orthogonalLoop=1;jettySize=auto;html=1;entryX=0;entryY=0;entryDx=61.5;entryDy=0;entryPerimeter=0;endArrow=block;endFill=1;" parent="1" source="EpLoNu7SxfJ4iQwhgqlz-36" target="EpLoNu7SxfJ4iQwhgqlz-38" edge="1">
          <mxGeometry relative="1" as="geometry" />
        </mxCell>
        <mxCell id="EpLoNu7SxfJ4iQwhgqlz-36" value="&lt;b&gt;Inference Rule IR1:&lt;/b&gt; If tweety is a bird then it can fly" style="shape=process;whiteSpace=wrap;html=1;backgroundOutline=1;fillColor=#A9C4EB;size=0.05555555555555555;" parent="1" vertex="1">
          <mxGeometry x="810" y="150" width="180" height="60" as="geometry" />
        </mxCell>
        <mxCell id="EpLoNu7SxfJ4iQwhgqlz-41" style="edgeStyle=orthogonalEdgeStyle;curved=1;rounded=0;orthogonalLoop=1;jettySize=auto;html=1;endArrow=block;endFill=1;" parent="1" source="EpLoNu7SxfJ4iQwhgqlz-38" target="EpLoNu7SxfJ4iQwhgqlz-40" edge="1">
          <mxGeometry relative="1" as="geometry" />
        </mxCell>
        <mxCell id="EpLoNu7SxfJ4iQwhgqlz-38" value="Undercut UC1: Unless Tweety is a juvenile" style="shape=note;whiteSpace=wrap;html=1;backgroundOutline=1;darkOpacity=0.05;size=17;fillColor=#F19C99;" parent="1" vertex="1">
          <mxGeometry x="810" y="260" width="140" height="60" as="geometry" />
        </mxCell>
        <mxCell id="EpLoNu7SxfJ4iQwhgqlz-40" value="&lt;b&gt;Sub-Claim C6:&lt;br&gt;&lt;/b&gt;Tweety is a member of a flying bird species" style="rounded=0;whiteSpace=wrap;html=1;" parent="1" vertex="1">
          <mxGeometry x="810" y="370" width="140" height="60" as="geometry" />
        </mxCell>
        <mxCell id="EpLoNu7SxfJ4iQwhgqlz-42" value="" style="rhombus;whiteSpace=wrap;html=1;fillColor=#000000;" parent="1" vertex="1">
          <mxGeometry x="865" y="430" width="30" height="30" as="geometry" />
        </mxCell>
        <mxCell id="DYZq1Ub0ufAEVa0tTdsM-1" value="Rebuttal R2: There are too many false positive alerts" style="shape=note;whiteSpace=wrap;html=1;backgroundOutline=1;darkOpacity=0.05;size=17;fillColor=#FFF2CC;" vertex="1" parent="1">
          <mxGeometry x="320" y="170" width="197.5" height="60" as="geometry" />
        </mxCell>
        <mxCell id="DYZq1Ub0ufAEVa0tTdsM-2" value="" style="edgeStyle=orthogonalEdgeStyle;rounded=0;orthogonalLoop=1;jettySize=auto;html=1;endArrow=block;endFill=1;curved=1;entryX=0.5;entryY=0;entryDx=0;entryDy=0;entryPerimeter=0;exitX=0.5;exitY=1;exitDx=0;exitDy=0;" edge="1" parent="1" source="EpLoNu7SxfJ4iQwhgqlz-2" target="DYZq1Ub0ufAEVa0tTdsM-1">
          <mxGeometry relative="1" as="geometry">
            <mxPoint x="385" y="110" as="sourcePoint" />
            <mxPoint x="389" y="160" as="targetPoint" />
          </mxGeometry>
        </mxCell>
        <mxCell id="DYZq1Ub0ufAEVa0tTdsM-3" value="Rebuttal R3: Network logging is not real-time" style="shape=note;whiteSpace=wrap;html=1;backgroundOutline=1;darkOpacity=0.05;size=17;fillColor=#FFF2CC;" vertex="1" parent="1">
          <mxGeometry x="602.5" y="170" width="197.5" height="60" as="geometry" />
        </mxCell>
        <mxCell id="DYZq1Ub0ufAEVa0tTdsM-4" value="" style="edgeStyle=orthogonalEdgeStyle;rounded=0;orthogonalLoop=1;jettySize=auto;html=1;endArrow=block;endFill=1;curved=1;entryX=0.5;entryY=0;entryDx=0;entryDy=0;entryPerimeter=0;" edge="1" parent="1" target="DYZq1Ub0ufAEVa0tTdsM-3">
          <mxGeometry relative="1" as="geometry">
            <mxPoint x="370" y="100" as="sourcePoint" />
            <mxPoint x="136" y="190" as="targetPoint" />
          </mxGeometry>
        </mxCell>
        <mxCell id="DYZq1Ub0ufAEVa0tTdsM-7" value="Rebuttal R4: Alerting from logs is not real-time" style="shape=note;whiteSpace=wrap;html=1;backgroundOutline=1;darkOpacity=0.05;size=17;fillColor=#FFF2CC;" vertex="1" parent="1">
          <mxGeometry x="142.5" y="250" width="197.5" height="60" as="geometry" />
        </mxCell>
        <mxCell id="DYZq1Ub0ufAEVa0tTdsM-8" value="Rebuttal R5: Logs are not securely stored" style="shape=note;whiteSpace=wrap;html=1;backgroundOutline=1;darkOpacity=0.05;size=17;fillColor=#FFF2CC;" vertex="1" parent="1">
          <mxGeometry x="470" y="250" width="197.5" height="60" as="geometry" />
        </mxCell>
        <mxCell id="DYZq1Ub0ufAEVa0tTdsM-9" value="Rebuttal R6: Logs will fill up storage and prevent storing new logs" style="shape=note;whiteSpace=wrap;html=1;backgroundOutline=1;darkOpacity=0.05;size=17;fillColor=#FFF2CC;" vertex="1" parent="1">
          <mxGeometry x="310" y="340" width="197.5" height="60" as="geometry" />
        </mxCell>
        <mxCell id="DYZq1Ub0ufAEVa0tTdsM-10" value="" style="edgeStyle=orthogonalEdgeStyle;rounded=0;orthogonalLoop=1;jettySize=auto;html=1;endArrow=block;endFill=1;curved=1;entryX=0.5;entryY=0;entryDx=0;entryDy=0;entryPerimeter=0;" edge="1" parent="1" target="DYZq1Ub0ufAEVa0tTdsM-7">
          <mxGeometry relative="1" as="geometry">
            <mxPoint x="370" y="100" as="sourcePoint" />
            <mxPoint x="337" y="180" as="targetPoint" />
          </mxGeometry>
        </mxCell>
        <mxCell id="DYZq1Ub0ufAEVa0tTdsM-12" value="" style="edgeStyle=orthogonalEdgeStyle;rounded=0;orthogonalLoop=1;jettySize=auto;html=1;endArrow=block;endFill=1;curved=1;entryX=0;entryY=0;entryDx=90.25;entryDy=0;entryPerimeter=0;" edge="1" parent="1" target="DYZq1Ub0ufAEVa0tTdsM-9">
          <mxGeometry relative="1" as="geometry">
            <mxPoint x="370" y="100" as="sourcePoint" />
            <mxPoint x="251" y="260" as="targetPoint" />
          </mxGeometry>
        </mxCell>
        <mxCell id="DYZq1Ub0ufAEVa0tTdsM-13" value="" style="edgeStyle=orthogonalEdgeStyle;rounded=0;orthogonalLoop=1;jettySize=auto;html=1;endArrow=block;endFill=1;curved=1;entryX=0.5;entryY=0;entryDx=0;entryDy=0;entryPerimeter=0;exitX=0.5;exitY=1;exitDx=0;exitDy=0;" edge="1" parent="1" source="EpLoNu7SxfJ4iQwhgqlz-2" target="DYZq1Ub0ufAEVa0tTdsM-8">
          <mxGeometry relative="1" as="geometry">
            <mxPoint x="380" y="110" as="sourcePoint" />
            <mxPoint x="410" y="350" as="targetPoint" />
          </mxGeometry>
        </mxCell>
        <mxCell id="DYZq1Ub0ufAEVa0tTdsM-17" value="" style="rounded=0;whiteSpace=wrap;html=1;opacity=50;fillColor=#ff6b6b;" vertex="1" parent="1">
          <mxGeometry x="800" y="30" width="260" height="470" as="geometry" />
        </mxCell>
        <mxCell id="DYZq1Ub0ufAEVa0tTdsM-19" value="&lt;b&gt;Sub-Claim C2:&lt;br&gt;&lt;/b&gt;Users can configure log priority to filter logs" style="rounded=0;whiteSpace=wrap;html=1;" vertex="1" parent="1">
          <mxGeometry x="532.5" y="460" width="135" height="60" as="geometry" />
        </mxCell>
        <mxCell id="DYZq1Ub0ufAEVa0tTdsM-20" value="&lt;b&gt;Sub-Claim C2:&lt;br&gt;&lt;/b&gt;Identify normal behavor to eliminate those alerts" style="rounded=0;whiteSpace=wrap;html=1;" vertex="1" parent="1">
          <mxGeometry x="650" y="360" width="135" height="60" as="geometry" />
        </mxCell>
        <mxCell id="DYZq1Ub0ufAEVa0tTdsM-21" style="edgeStyle=orthogonalEdgeStyle;curved=1;rounded=0;orthogonalLoop=1;jettySize=auto;html=1;endArrow=block;endFill=1;exitX=0.5;exitY=1;exitDx=0;exitDy=0;exitPerimeter=0;entryX=0.5;entryY=0;entryDx=0;entryDy=0;" edge="1" parent="1" source="DYZq1Ub0ufAEVa0tTdsM-1" target="DYZq1Ub0ufAEVa0tTdsM-20">
          <mxGeometry relative="1" as="geometry">
            <mxPoint x="429" y="240" as="sourcePoint" />
            <mxPoint x="528" y="440" as="targetPoint" />
          </mxGeometry>
        </mxCell>
        <mxCell id="DYZq1Ub0ufAEVa0tTdsM-22" value="" style="rounded=0;whiteSpace=wrap;html=1;opacity=50;fillColor=#ff6b6b;" vertex="1" parent="1">
          <mxGeometry x="10" y="440" width="500" height="860" as="geometry" />
        </mxCell>
      </root>
    </mxGraphModel>
  </diagram>
</mxfile>
